<?xml version="1.0" standalone="no"?>
<!DOCTYPE svg PUBLIC "-//W3C//DTD SVG 20010904//EN"
 "http://www.w3.org/TR/2001/REC-SVG-20010904/DTD/svg10.dtd">
<svg version="1.0" xmlns="http://www.w3.org/2000/svg"
 width="1280.000000pt" height="1160.000000pt" viewBox="0 0 1280.000000 1160.000000"
 preserveAspectRatio="xMidYMid meet">
<g transform="translate(0.000000,1160.000000) scale(0.100000,-0.100000)"
fill="#000000" stroke="none">
<path d="M6393 8462 c-3511 -1720 -6383 -3129 -6383 -3132 0 -3 429 -253 952
-554 524 -302 960 -556 969 -565 9 -9 451 -924 983 -2034 924 -1929 967 -2021
978 -2097 l11 -80 51 0 51 0 619 1146 c341 630 622 1147 625 1149 4 2 735
-417 1626 -931 890 -514 1622 -934 1625 -934 3 0 83 204 179 453 95 248 420
1093 721 1877 767 1995 2641 6869 3049 7932 188 488 341 890 341 893 0 3 -3 5
-7 4 -5 0 -2880 -1408 -6390 -3127z"/>
</g>
</svg>
