<?xml version="1.0" standalone="no"?>
<!DOCTYPE svg PUBLIC "-//W3C//DTD SVG 20010904//EN"
 "http://www.w3.org/TR/2001/REC-SVG-20010904/DTD/svg10.dtd">
<svg version="1.0" xmlns="http://www.w3.org/2000/svg"
 width="872.000000pt" height="1280.000000pt" viewBox="0 0 872.000000 1280.000000"
 preserveAspectRatio="xMidYMid meet">
<g transform="translate(0.000000,1280.000000) scale(0.100000,-0.100000)"
fill="#000000" stroke="none">
<path d="M4310 12785 c-183 -38 -356 -147 -464 -293 -81 -110 -144 -281 -149
-402 l-3 -55 -537 -3 -537 -2 -50 -68 c-27 -37 -77 -113 -111 -169 l-62 -103
-1086 -2 -1086 -3 -46 -21 c-60 -28 -119 -87 -150 -150 l-24 -49 0 -5620 0
-5620 22 -45 c29 -59 93 -123 151 -152 l47 -23 4135 0 4135 0 47 24 c61 30
119 88 149 149 l24 47 0 5620 0 5620 -23 47 c-30 60 -90 120 -150 150 l-47 23
-1045 3 -1045 3 -45 82 c-25 44 -71 118 -104 164 l-59 83 -492 0 -492 0 -6 83
c-7 107 -28 183 -79 285 -47 97 -156 220 -252 285 -159 108 -376 151 -566 112z"/>
</g>
</svg>
