<?xml version="1.0" standalone="no"?>
<!DOCTYPE svg PUBLIC "-//W3C//DTD SVG 20010904//EN"
 "http://www.w3.org/TR/2001/REC-SVG-20010904/DTD/svg10.dtd">
<svg version="1.0" xmlns="http://www.w3.org/2000/svg"
 width="1156.000000pt" height="1280.000000pt" viewBox="0 0 1156.000000 1280.000000"
 preserveAspectRatio="xMidYMid meet">
<g transform="translate(0.000000,1280.000000) scale(0.100000,-0.100000)"
fill="#000000" stroke="none">
<path d="M9592 12742 c17 -31 58 -96 89 -144 109 -166 149 -323 149 -582 0
-237 -38 -442 -125 -671 -76 -199 -129 -284 -277 -440 -350 -372 -856 -667
-1548 -903 -177 -60 -459 -142 -625 -182 -678 -162 -834 -207 -1135 -328 -611
-245 -1056 -524 -1313 -822 -149 -172 -226 -316 -316 -586 -151 -455 -184
-914 -86 -1196 70 -201 183 -311 384 -373 24 -7 24 -7 18 48 -3 31 -27 120
-54 199 l-48 143 0 245 c0 197 4 263 18 339 53 270 149 505 297 729 146 219
225 298 414 411 290 173 626 280 1286 411 382 76 530 109 750 166 599 155
1047 328 1417 548 138 82 246 160 518 377 216 172 352 273 429 319 l38 23 -7
-24 c-37 -125 -120 -300 -202 -424 -219 -333 -466 -539 -1158 -970 -603 -376
-828 -499 -1160 -635 -188 -78 -418 -188 -504 -242 -126 -79 -241 -188 -241
-230 0 -29 -31 -36 570 129 1113 304 1785 579 2283 934 657 470 996 1088 998
1820 0 170 -15 271 -55 370 -28 69 -87 162 -97 151 -3 -4 -16 -56 -28 -117
-40 -194 -110 -381 -169 -450 -23 -27 -82 -75 -92 -75 -10 0 39 167 108 370
115 335 148 470 167 675 14 156 -34 384 -110 520 -105 189 -315 377 -543 488
l-73 36 33 -57z"/>
<path d="M10393 11668 c3 -9 54 -94 113 -189 180 -292 221 -402 231 -619 18
-405 -133 -824 -448 -1240 -352 -464 -816 -797 -1689 -1211 -129 -61 -239
-115 -244 -120 -5 -4 6 -6 25 -4 19 3 115 14 214 25 928 107 1655 343 2118
687 180 135 299 261 435 463 249 371 392 761 409 1120 10 208 -18 381 -83 519
-157 333 -527 552 -978 578 -96 6 -109 4 -103 -9z"/>
<path d="M8965 9578 c-22 -17 -83 -59 -135 -93 -267 -176 -549 -302 -1155
-515 -911 -320 -1181 -436 -1500 -645 -292 -191 -512 -428 -645 -695 -83 -167
-149 -413 -164 -620 l-6 -75 53 -85 c46 -74 57 -85 84 -88 l31 -3 -21 43 c-29
58 -27 143 8 284 15 60 29 133 32 162 6 54 6 54 157 206 218 220 410 376 706
573 306 203 548 337 1227 678 600 301 824 426 1067 598 93 66 232 178 304 245
63 60 27 85 -43 30z"/>
<path d="M4030 7340 c-155 -30 -391 -58 -820 -95 -600 -53 -818 -79 -1056
-130 -207 -43 -413 -113 -508 -173 -104 -65 -176 -177 -176 -274 0 -106 34
-168 211 -383 212 -258 239 -318 509 -1115 144 -424 293 -859 400 -1165 15
-44 69 -192 120 -330 334 -906 444 -1303 490 -1765 50 -510 114 -621 442 -765
258 -114 604 -169 1058 -168 472 1 926 66 1329 190 201 62 191 55 244 180 85
200 157 454 157 550 0 28 2 29 75 42 168 28 279 120 409 342 216 367 228 380
507 566 408 272 815 631 1055 930 305 378 451 759 430 1118 -26 431 -218 769
-511 897 -156 69 -298 76 -396 21 -99 -55 -163 -165 -230 -392 -86 -291 -123
-385 -171 -428 -20 -18 -20 -18 -13 27 4 25 22 110 41 190 101 426 114 505
114 676 0 120 -2 122 -107 153 -76 23 -112 53 -92 77 25 30 125 87 245 139
202 88 270 149 293 262 13 70 1 159 -28 207 -80 129 -313 265 -633 371 -422
139 -798 196 -1304 198 l-262 1 -38 -29 c-95 -72 -159 -166 -170 -247 l-6 -45
128 -21 c323 -55 824 -97 1369 -117 197 -7 198 -2 11 50 -149 40 -342 74 -671
115 -234 30 -470 66 -490 75 -14 7 302 -4 485 -16 405 -27 696 -87 905 -189
82 -39 195 -115 195 -129 0 -11 -68 -66 -145 -118 -202 -136 -508 -229 -925
-282 -317 -41 -693 -48 -1426 -28 -329 10 -831 22 -1114 27 -806 16 -1129 49
-1468 150 -309 93 -416 187 -382 337 6 29 15 55 20 58 18 11 50 -16 90 -75 41
-61 81 -90 122 -90 13 0 88 23 168 51 197 69 262 86 420 109 185 27 329 38
720 55 184 8 397 20 472 26 l137 12 -5 61 c-17 209 -39 288 -85 311 -15 8 -32
15 -36 14 -4 -1 -51 -9 -103 -19z m-2151 -629 c127 -130 220 -200 354 -267
166 -84 334 -127 546 -141 91 -5 100 -8 80 -19 -102 -53 -454 -43 -711 21
-205 51 -301 120 -371 266 -55 116 -72 259 -30 259 9 0 68 -53 132 -119z m276
-480 c401 -131 900 -220 1515 -270 385 -31 542 -36 1205 -36 669 1 806 4 1424
41 139 8 255 13 257 11 5 -5 -215 -59 -326 -81 -666 -132 -1819 -140 -2875
-20 -121 13 -339 38 -485 54 -432 49 -581 80 -711 146 -58 29 -130 92 -158
138 -18 30 -36 76 -29 76 2 0 84 -27 183 -59z m361 -441 c104 -25 263 -45 569
-70 377 -31 550 -63 689 -128 l61 -29 -125 -7 c-228 -12 -772 19 -1110 64 -80
11 -151 20 -157 20 -10 0 -13 24 -13 85 0 47 2 85 4 85 2 0 39 -9 82 -20z
m229 -354 c340 -83 318 -80 575 -81 210 0 239 -2 263 -18 27 -17 67 -72 67
-91 0 -12 -804 0 -905 13 -90 12 -251 48 -277 62 -15 8 -18 24 -18 93 l0 83
58 -9 c31 -5 138 -28 237 -52z m5651 -151 c166 -49 263 -267 234 -527 -20
-176 -71 -314 -173 -470 -90 -139 -171 -232 -437 -503 -141 -143 -279 -291
-308 -329 -49 -66 -57 -72 -142 -107 -322 -135 -600 -399 -855 -812 -43 -70
-80 -126 -81 -124 -6 5 51 203 106 369 64 192 166 449 327 828 195 456 301
725 368 935 l32 100 68 33 c89 43 167 122 282 288 146 208 215 275 326 315 64
23 184 25 253 4z m-5601 -184 c72 -6 225 -15 340 -21 318 -16 484 -46 603
-110 l37 -19 -145 0 c-80 -1 -261 -6 -402 -13 -343 -15 -503 2 -645 69 l-53
24 0 53 0 53 68 -13 c37 -7 126 -17 197 -23z m-135 -296 c104 -28 318 -56 540
-70 367 -23 678 -63 665 -86 -3 -4 -40 -16 -83 -26 -88 -20 -295 -23 -836 -10
l-309 7 -24 72 c-23 73 -30 128 -15 128 4 0 32 -7 62 -15z m340 -385 c321 -17
490 -30 589 -46 97 -15 216 -50 279 -83 l37 -19 -80 -8 c-160 -17 -1065 -1
-1065 19 0 6 -12 25 -26 44 -14 19 -29 53 -32 75 l-5 41 54 -6 c30 -4 142 -11
249 -17z m212 -355 c201 -17 609 -63 615 -69 8 -8 -55 -45 -107 -63 -46 -15
-87 -18 -260 -18 -198 0 -470 11 -538 21 -28 4 -36 12 -56 57 -13 29 -31 60
-40 70 -17 16 -12 17 93 17 60 0 192 -7 293 -15z m43 -315 c289 -17 610 -62
639 -90 14 -14 -64 -58 -134 -76 -57 -15 -96 -16 -325 -8 -143 4 -296 8 -340
9 l-79 0 -8 42 c-4 24 -16 64 -27 89 -12 26 -21 48 -21 49 0 2 26 1 58 -1 31
-2 138 -8 237 -14z m-28 -366 c49 -11 153 -18 363 -24 318 -8 356 -14 438 -67
52 -34 49 -35 -108 -54 -125 -15 -678 -20 -741 -6 -30 6 -36 11 -32 27 3 10
-7 44 -21 76 -14 31 -26 65 -26 75 0 18 2 19 30 4 16 -8 60 -22 97 -31z m173
-374 c36 -5 193 -14 350 -20 157 -6 354 -13 438 -16 83 -3 152 -10 152 -15 0
-17 -148 -80 -224 -94 -72 -14 -253 -26 -606 -39 l-135 -5 -39 62 c-24 38 -41
79 -44 105 -5 41 -4 43 19 37 13 -3 53 -9 89 -15z m505 -361 c237 -5 452 -13
480 -17 l50 -7 -50 -32 c-58 -37 -145 -67 -236 -83 -89 -16 -407 -24 -571 -15
l-136 7 -5 36 c-2 21 -10 51 -17 68 -19 44 -7 68 28 59 15 -3 221 -11 457 -16z
m-20 -329 c143 -11 315 -27 382 -35 67 -8 124 -15 128 -15 4 0 2 -7 -6 -16
-22 -26 -100 -60 -194 -85 -128 -33 -400 -33 -554 0 -145 31 -141 28 -141 113
l0 71 63 -6 c34 -4 179 -16 322 -27z m50 -320 c143 -11 294 -24 335 -30 94
-13 248 -49 255 -60 2 -4 -23 -19 -56 -34 -206 -89 -634 -71 -849 37 -63 31
-65 34 -71 76 l-6 44 66 -7 c36 -3 183 -15 326 -26z m-150 -355 c396 -83 959
-134 1475 -135 l165 -1 -31 -28 c-41 -37 -119 -66 -214 -80 -381 -56 -974 -36
-1385 45 -184 37 -255 60 -255 84 0 10 -13 47 -30 82 -16 34 -30 73 -30 84 l0
22 93 -24 c50 -13 146 -35 212 -49z"/>
<path d="M8105 4814 c-158 -119 -355 -314 -448 -444 -125 -176 -222 -403 -267
-623 -31 -155 -32 -154 60 -114 145 64 317 183 491 338 63 58 77 76 87 116 19
70 69 132 140 173 59 34 61 37 116 150 31 63 65 142 77 175 22 64 36 201 25
257 -6 31 -10 35 -59 46 -28 7 -61 15 -72 18 -14 4 -57 -23 -150 -92z"/>
<path d="M2240 2474 c-678 -49 -1386 -190 -1802 -359 -199 -82 -274 -137 -358
-261 -89 -134 -102 -250 -42 -378 87 -186 301 -318 762 -470 694 -229 890
-281 1369 -360 202 -34 323 -60 483 -105 328 -92 412 -104 903 -121 345 -12
545 -26 679 -46 205 -30 283 -34 513 -24 126 5 291 18 368 29 210 30 329 39
670 51 575 20 642 28 970 121 145 42 275 71 420 95 276 45 435 77 630 125 186
46 149 35 480 139 666 209 839 285 997 441 96 94 132 173 133 289 0 77 -3 92
-36 161 -25 51 -59 100 -105 148 -60 64 -83 80 -189 132 -278 136 -697 247
-1285 340 -317 50 -468 42 -581 -29 -77 -50 -126 -157 -99 -221 23 -57 73 -73
245 -82 265 -13 525 -68 764 -161 93 -36 102 -42 81 -50 -35 -13 -271 -11
-360 2 -41 6 -177 31 -301 56 -276 54 -405 68 -529 60 -111 -7 -192 -27 -269
-66 l-55 -27 59 -18 c96 -27 194 -44 475 -80 312 -40 441 -65 553 -106 151
-54 146 -62 -51 -67 -115 -3 -198 2 -382 23 -351 41 -484 29 -606 -55 -25 -18
-44 -34 -42 -36 4 -3 54 -12 432 -79 139 -25 283 -62 274 -70 -2 -2 -31 -12
-63 -21 -48 -13 -130 -18 -395 -24 -310 -6 -340 -8 -400 -29 -73 -25 -105 -45
-96 -60 4 -5 32 -19 64 -31 47 -18 77 -22 172 -21 63 0 158 5 210 11 118 12
200 13 200 1 0 -16 -42 -62 -72 -77 -20 -10 -79 -19 -172 -25 -77 -6 -145 -11
-151 -14 -5 -2 76 -4 181 -4 767 -3 1649 248 2032 579 39 34 40 38 32 73 -4
20 -21 58 -38 84 -16 27 -33 61 -36 76 -6 26 -5 28 16 21 46 -14 97 -65 129
-129 30 -61 31 -70 27 -153 -5 -109 -24 -144 -113 -207 -191 -136 -567 -255
-1265 -399 -756 -155 -1564 -260 -2355 -306 -317 -18 -916 -29 -1097 -19
-1029 53 -2039 198 -2963 424 -351 85 -580 167 -732 261 -121 75 -153 127
-153 250 0 111 55 211 141 255 50 25 51 13 3 -78 -21 -37 -40 -82 -44 -100 -7
-29 -4 -35 39 -71 357 -301 1073 -526 1821 -572 201 -12 383 -13 376 -2 -3 5
-65 12 -137 16 -154 7 -208 25 -234 77 l-17 32 163 -9 c316 -17 416 -9 470 35
l23 18 -28 18 c-15 10 -57 27 -94 38 -58 17 -113 20 -402 27 -304 7 -359 11
-430 36 -35 13 154 59 400 99 157 25 251 42 283 51 15 5 12 10 -19 34 -49 40
-125 66 -225 80 -91 13 -115 11 -449 -27 -224 -25 -377 -27 -455 -5 l-30 9 30
15 c104 54 285 94 633 138 317 40 522 79 522 99 0 9 -102 56 -150 70 -19 6
-75 15 -124 21 -122 15 -259 0 -571 -60 -293 -57 -464 -76 -588 -66 -48 4 -85
12 -82 16 10 17 213 90 345 124 282 73 598 111 1203 142 l127 6 0 32 c0 139
-106 250 -270 285 -58 13 -268 21 -360 15z"/>
<path d="M2145 395 c456 -224 1216 -365 2116 -391 226 -7 888 6 1444 27 462
17 716 59 950 156 67 28 168 83 162 89 -2 2 -44 -3 -94 -11 -672 -109 -1600
-134 -2538 -70 -555 38 -1194 110 -1820 205 -143 22 -276 42 -295 45 -26 3 -5
-10 75 -50z"/>
</g>
</svg>
