<?xml version="1.0" standalone="no"?>
<!DOCTYPE svg PUBLIC "-//W3C//DTD SVG 20010904//EN"
 "http://www.w3.org/TR/2001/REC-SVG-20010904/DTD/svg10.dtd">
<svg version="1.0" xmlns="http://www.w3.org/2000/svg"
 width="640.000000pt" height="1280.000000pt" viewBox="0 0 640.000000 1280.000000"
 preserveAspectRatio="xMidYMid meet">
<g transform="translate(0.000000,1280.000000) scale(0.100000,-0.100000)"
fill="#000000" stroke="none">
<path d="M3166 12658 c-3 -79 -9 -202 -12 -274 l-6 -131 -74 -36 c-71 -35 -74
-38 -74 -72 0 -31 5 -37 42 -56 l41 -21 -6 -487 c-4 -267 -12 -829 -19 -1249
l-12 -764 -38 -19 c-44 -22 -36 3 -102 -324 l-51 -250 -136 -3 -136 -3 -7
-332 c-7 -356 -19 -977 -36 -1812 -6 -286 -19 -981 -30 -1545 -11 -564 -24
-1257 -30 -1540 -17 -850 -29 -1475 -40 -2045 -6 -297 -15 -740 -20 -985 -6
-245 -10 -505 -10 -577 l0 -133 790 0 791 0 -6 133 c-3 72 -10 386 -15 697 -6
311 -15 786 -20 1055 -5 270 -14 724 -20 1010 -6 286 -15 745 -20 1020 -5 275
-14 736 -20 1025 -6 289 -15 755 -20 1035 -6 281 -15 735 -20 1010 -5 275 -14
739 -20 1030 -5 292 -12 626 -16 743 l-6 212 -133 0 c-97 0 -134 3 -137 13 -3
6 -29 133 -59 281 l-54 269 -37 15 -36 14 -6 102 c-4 78 -37 2228 -36 2372 0
26 6 34 40 49 37 17 40 21 40 57 0 38 -1 39 -74 75 l-74 36 -6 216 c-4 119 -9
242 -12 274 -5 51 -8 57 -29 57 -22 0 -23 -3 -29 -142z"/>
</g>
</svg>
