<?xml version="1.0" standalone="no"?>
<!DOCTYPE svg PUBLIC "-//W3C//DTD SVG 20010904//EN"
 "http://www.w3.org/TR/2001/REC-SVG-20010904/DTD/svg10.dtd">
<svg version="1.0" xmlns="http://www.w3.org/2000/svg"
 width="1162.000000pt" height="1280.000000pt" viewBox="0 0 1162.000000 1280.000000"
 preserveAspectRatio="xMidYMid meet">
<g transform="translate(0.000000,1280.000000) scale(0.100000,-0.100000)"
fill="#000000" stroke="none">
<path d="M9524 12786 c-49 -22 -74 -61 -74 -119 0 -58 -6 -51 254 -287 294
-266 589 -613 821 -965 452 -688 719 -1428 811 -2255 22 -196 25 -751 6 -940
-66 -628 -219 -1174 -481 -1715 -257 -530 -579 -982 -1001 -1406 -270 -271
-493 -456 -822 -683 -151 -103 -176 -135 -164 -201 5 -26 20 -51 43 -72 29
-28 42 -33 82 -33 44 0 59 8 192 98 1242 842 2084 2108 2344 3525 83 455 105
971 61 1422 -106 1073 -527 2065 -1237 2916 -203 243 -653 681 -736 715 -40
17 -59 17 -99 0z"/>
<path d="M1987 12775 c-41 -21 -246 -206 -402 -362 -678 -678 -1158 -1501
-1405 -2408 -358 -1320 -173 -2744 516 -3947 235 -411 514 -777 858 -1126 270
-274 485 -458 784 -670 178 -127 239 -162 281 -162 106 0 165 121 100 204 -11
14 -86 71 -167 126 -547 371 -1045 868 -1411 1405 -414 609 -695 1301 -810
1995 -55 332 -65 455 -65 815 -1 345 6 447 50 742 137 922 535 1787 1166 2535
132 156 419 447 566 572 109 93 122 112 122 178 0 34 -6 47 -39 79 -32 32 -46
39 -77 39 -22 0 -52 -7 -67 -15z"/>
<path d="M8548 12200 c-50 -27 -78 -76 -78 -136 0 -59 22 -98 81 -145 24 -19
82 -66 129 -103 464 -371 857 -858 1121 -1386 439 -880 542 -1847 294 -2785
-276 -1048 -978 -1959 -1957 -2539 -108 -65 -125 -80 -142 -131 -36 -102 39
-205 148 -205 55 0 97 21 291 143 544 343 1017 803 1370 1332 140 210 216 343
316 550 524 1092 566 2328 117 3445 -244 605 -635 1173 -1113 1613 -151 139
-373 320 -427 348 -47 24 -103 24 -150 -1z"/>
<path d="M2915 12192 c-53 -33 -236 -182 -367 -300 -337 -301 -616 -641 -866
-1052 -81 -134 -247 -470 -307 -625 -377 -960 -400 -1989 -67 -2965 337 -988
1050 -1853 1991 -2415 93 -56 124 -69 165 -72 115 -9 197 95 160 202 -18 54
-32 66 -204 171 -306 187 -571 397 -822 651 -180 181 -264 278 -391 448 -851
1138 -1047 2577 -527 3880 273 686 755 1312 1368 1779 80 61 102 96 102 161 0
93 -62 155 -155 155 -31 0 -61 -7 -80 -18z"/>
<path d="M7964 11441 c-30 -18 -64 -74 -64 -105 0 -42 32 -88 101 -143 276
-221 474 -423 654 -666 221 -296 399 -653 503 -1002 126 -422 160 -893 96
-1318 -71 -478 -245 -917 -525 -1332 -254 -375 -641 -740 -1039 -980 -116 -70
-147 -98 -160 -147 -13 -45 3 -90 44 -127 20 -19 38 -25 74 -25 41 -1 61 7
138 53 647 394 1115 901 1424 1544 458 955 447 2028 -33 2983 -220 438 -573
868 -973 1186 -130 104 -175 118 -240 79z"/>
<path d="M3520 11433 c-140 -96 -401 -331 -542 -490 -252 -283 -410 -518 -568
-847 -248 -515 -362 -1081 -330 -1629 28 -465 133 -872 330 -1284 177 -370
384 -658 694 -969 232 -232 420 -381 688 -547 137 -85 173 -96 224 -71 50 25
76 63 78 112 1 58 -19 87 -93 134 -344 218 -508 345 -712 548 -276 275 -481
563 -644 903 -372 778 -412 1623 -114 2432 61 168 217 474 319 630 51 77 135
194 188 260 125 156 363 394 526 524 140 113 163 145 151 210 -4 22 -20 48
-42 68 -29 28 -42 33 -81 33 -28 0 -58 -7 -72 -17z"/>
<path d="M7405 10683 c-52 -14 -95 -71 -95 -128 0 -46 27 -81 132 -168 219
-180 431 -426 558 -648 201 -351 300 -716 300 -1109 0 -345 -71 -652 -224
-965 -191 -389 -475 -709 -841 -943 -188 -121 -195 -128 -195 -198 0 -80 57
-130 139 -122 128 13 560 353 779 611 411 486 617 1064 599 1687 -15 539 -193
1027 -535 1469 -137 177 -498 511 -552 511 -10 0 -24 2 -32 4 -7 2 -22 1 -33
-1z"/>
<path d="M4135 10666 c-82 -36 -349 -281 -487 -446 -44 -52 -120 -155 -168
-227 -209 -314 -334 -635 -397 -1018 -25 -156 -25 -543 0 -705 70 -446 252
-859 532 -1210 171 -214 457 -463 697 -607 117 -72 158 -79 214 -41 39 27 54
56 54 104 0 61 -23 88 -137 159 -304 189 -564 440 -757 730 -190 286 -316 632
-356 980 -13 115 -13 354 0 470 48 419 219 828 488 1164 97 121 245 269 364
364 115 91 119 97 125 150 6 50 -14 98 -50 121 -34 22 -88 28 -122 12z"/>
<path d="M6853 10115 c-44 -19 -73 -69 -73 -125 0 -42 3 -48 62 -100 157 -139
296 -288 366 -393 166 -250 247 -496 259 -788 23 -558 -249 -1055 -753 -1381
-105 -68 -124 -92 -124 -154 0 -71 55 -124 128 -124 75 0 304 161 477 334 272
272 441 592 512 969 27 145 25 466 -5 616 -84 418 -301 786 -625 1057 -123
104 -159 118 -224 89z"/>
<path d="M4662 10105 c-48 -21 -175 -129 -273 -232 -241 -255 -393 -546 -466
-892 -24 -113 -27 -148 -27 -336 -1 -181 3 -226 22 -325 102 -508 404 -940
855 -1223 72 -45 89 -52 135 -52 49 0 56 3 88 37 28 31 34 45 34 83 0 26 -7
57 -17 71 -9 14 -62 55 -117 91 -420 273 -678 671 -736 1137 -17 131 -7 361
20 481 84 375 262 653 599 935 49 42 54 49 58 95 5 60 -10 91 -56 122 -39 26
-72 28 -119 8z"/>
<path d="M5630 9464 c-243 -45 -396 -119 -541 -264 -297 -295 -319 -767 -50
-1087 73 -87 167 -163 259 -210 l74 -38 -7 -95 c-44 -658 -169 -1439 -327
-2050 -419 -1620 -1103 -2952 -2107 -4100 -253 -290 -699 -723 -1024 -995
l-48 -40 196 -235 c108 -129 205 -243 215 -253 17 -18 23 -15 171 113 333 286
627 572 908 883 l124 137 2251 -1 2251 0 108 -123 c136 -154 440 -463 617
-626 144 -133 442 -390 450 -389 5 0 413 488 418 499 2 4 -41 45 -95 91 -750
639 -1358 1341 -1865 2154 -867 1392 -1403 3103 -1536 4903 l-8 103 72 33 c97
45 187 108 260 180 463 464 234 1215 -424 1387 -75 20 -284 34 -342 23z m125
-3904 c115 -478 338 -1143 553 -1650 120 -283 303 -666 417 -871 25 -45 45
-83 45 -85 0 -2 -473 -4 -1051 -4 -578 0 -1049 3 -1047 8 2 4 40 77 85 162 45
85 118 230 162 323 l80 167 495 0 496 0 0 265 0 265 -380 0 c-209 0 -380 4
-380 8 0 5 22 65 49 133 134 343 303 880 408 1296 15 62 31 109 34 105 3 -4
19 -59 34 -122z m1458 -3333 c70 -105 170 -250 222 -322 52 -71 95 -133 95
-137 0 -5 -814 -8 -1810 -8 -995 0 -1810 3 -1810 6 0 3 51 76 113 162 61 87
162 233 222 325 l110 167 1365 0 1365 0 128 -193z"/>
</g>
</svg>
