<?xml version="1.0" standalone="no"?>
<!DOCTYPE svg PUBLIC "-//W3C//DTD SVG 20010904//EN"
 "http://www.w3.org/TR/2001/REC-SVG-20010904/DTD/svg10.dtd">
<svg version="1.0" xmlns="http://www.w3.org/2000/svg"
 width="1280.000000pt" height="745.000000pt" viewBox="0 0 1280.000000 745.000000"
 preserveAspectRatio="xMidYMid meet">
<g transform="translate(0.000000,745.000000) scale(0.100000,-0.100000)"
fill="#000000" stroke="none">
<path d="M11015 7415 c-236 -56 -377 -116 -510 -218 l-69 -53 -173 -407 c-302
-714 -549 -1267 -566 -1267 -4 0 -572 255 -839 378 -43 19 -78 38 -78 41 0 7
144 49 282 81 l88 21 333 -106 c184 -58 339 -105 345 -105 7 0 12 4 12 9 0 6
-37 21 -82 35 -46 14 -201 63 -346 109 l-263 84 -167 -42 c-271 -69 -395 -129
-529 -258 -49 -47 -50 -54 -24 -105 16 -31 78 -77 385 -281 l366 -244 -38 -26
c-20 -14 -156 -102 -302 -196 l-266 -170 -708 -279 -708 -278 -361 17 -362 16
-365 159 c-1573 682 -3101 1295 -4801 1924 -158 58 -296 106 -306 106 -34 0
-293 -77 -413 -123 -403 -154 -591 -337 -541 -524 26 -97 13 -89 1251 -795
922 -527 1180 -669 1323 -733 97 -43 177 -82 177 -87 0 -9 412 -523 959 -1198
412 -507 367 -454 379 -446 6 4 -175 235 -402 514 -521 642 -896 1108 -896
1115 0 3 81 -31 180 -75 99 -44 180 -85 180 -89 0 -5 232 -306 515 -669 283
-363 520 -668 527 -679 19 -31 -3 -64 -74 -112 -243 -164 -489 -369 -715 -597
-199 -200 -223 -240 -231 -385 -5 -109 7 -176 49 -268 30 -65 30 -67 14 -99
-28 -54 -55 -141 -55 -176 0 -31 2 -33 50 -43 28 -6 94 -16 148 -22 85 -10
104 -16 152 -49 134 -89 279 -154 425 -190 82 -21 106 -22 268 -17 l178 6 -46
-42 c-122 -113 -193 -348 -137 -456 29 -59 63 -76 144 -74 55 1 79 -3 112 -20
62 -33 148 -30 203 7 48 32 107 114 130 181 12 38 33 60 124 135 194 162 225
215 217 364 -3 44 -9 89 -13 99 -4 10 -3 17 4 17 35 0 683 265 731 299 14 9
80 48 147 85 100 56 186 90 483 195 l361 128 165 -204 165 -204 -36 -72 c-81
-167 -88 -336 -15 -409 25 -24 36 -28 89 -28 50 0 68 -5 111 -32 67 -42 140
-49 197 -20 52 27 125 109 157 176 19 41 38 61 82 90 32 21 87 69 124 106 143
145 201 364 115 437 -33 29 -62 29 -177 -2 -106 -29 -261 -55 -329 -55 -31 0
-65 -10 -105 -30 -43 -21 -61 -26 -66 -17 -177 281 -217 352 -206 358 7 3 148
54 314 113 l301 106 253 -115 c243 -111 286 -126 1084 -389 730 -241 1131
-372 1846 -605 513 -166 611 -193 680 -188 117 8 342 94 543 208 193 110 637
414 637 437 0 5 -55 34 -122 64 -68 31 -490 224 -938 431 -448 206 -1505 693
-2349 1081 -844 389 -1536 708 -1538 710 -2 1 9 29 23 61 52 114 41 177 -48
261 -76 74 -214 153 -288 165 -25 4 -146 3 -270 -2 -212 -9 -228 -9 -280 10
l-55 20 267 0 c147 1 269 5 272 9 2 4 -55 30 -127 56 -73 27 -136 52 -140 56
-5 4 38 26 95 48 56 22 333 131 613 242 281 111 517 204 525 207 26 11 11 0
-299 -208 -167 -112 -311 -215 -319 -228 -22 -33 -5 -56 41 -55 24 1 527 218
1494 644 802 354 1460 644 1462 646 1 1 0 7 -3 12 -3 6 -93 -28 -209 -80 -111
-49 -208 -92 -216 -95 -9 -4 -12 0 -8 13 3 10 42 159 87 329 78 296 170 646
285 1080 29 110 72 274 96 364 39 151 45 166 72 180 16 9 69 40 119 69 49 29
92 51 94 49 4 -4 -164 -1018 -282 -1702 l-34 -200 25 -18 c30 -22 31 -42 7
-79 -33 -50 -106 -96 -235 -147 -355 -141 -620 -285 -672 -365 -30 -45 -14
-61 93 -91 53 -15 102 -30 109 -34 7 -4 -298 -297 -787 -756 -697 -653 -821
-775 -795 -775 3 0 370 342 815 760 l809 760 383 -120 c663 -207 979 -291
1093 -293 145 -2 457 156 605 306 68 68 93 107 84 131 -24 63 -412 277 -981
542 l-224 104 -164 -48 -164 -49 35 40 c40 48 44 90 13 123 l-21 23 46 273
c25 150 100 593 166 983 66 391 120 718 120 728 0 22 1 22 -165 -18z m138 -15
c-10 -39 -380 -242 -537 -295 -41 -14 -98 -25 -126 -25 -49 0 -51 1 -45 23 18
55 211 177 370 232 58 20 302 83 327 84 11 1 15 -5 11 -19z m-293 -225 c0 -3
-32 -126 -71 -273 -38 -147 -93 -352 -120 -457 -28 -104 -91 -343 -140 -530
-123 -461 -171 -647 -174 -664 -1 -9 -143 -77 -346 -166 -189 -84 -744 -328
-1232 -544 -488 -215 -899 -391 -912 -391 -15 0 -25 6 -25 14 0 11 538 379
735 503 312 195 834 538 993 650 l133 94 73 152 c119 247 344 762 591 1352
l59 140 60 0 c71 1 166 29 281 85 82 39 95 44 95 35z m-9479 -989 c1272 -473
2846 -1091 2817 -1107 -7 -3 -75 -21 -150 -39 -98 -22 -142 -29 -155 -22 -10
6 -664 272 -1453 592 -789 320 -1446 587 -1460 592 l-25 10 33 14 c17 8 32 18
32 23 0 10 -181 -59 -365 -139 -153 -66 -334 -159 -414 -210 -34 -22 -68 -40
-76 -40 -8 0 -15 -5 -15 -11 0 -7 -18 -31 -40 -55 -37 -41 -53 -84 -30 -84 6
0 10 9 10 20 0 20 65 100 82 100 5 0 554 -302 1221 -672 667 -369 1250 -688
1297 -709 47 -20 267 -111 490 -202 679 -277 1188 -496 1494 -642 98 -47 116
-59 102 -67 -10 -6 -24 -11 -32 -12 -33 -5 -159 -121 -200 -184 -1 -2 -482
211 -1069 472 l-1068 476 -1131 647 c-622 355 -1146 657 -1164 671 -81 61
-107 174 -61 263 69 136 280 268 604 378 98 33 281 87 306 90 3 1 192 -68 420
-153z m1029 -581 c784 -318 1436 -583 1449 -590 23 -12 22 -13 -30 -25 -30 -7
-58 -15 -62 -17 -9 -5 69 -42 673 -315 694 -313 1298 -577 1392 -607 29 -10
47 -9 90 3 57 16 306 67 429 87 l76 12 274 -92 c449 -153 616 -225 703 -306
35 -32 31 -65 -9 -84 -51 -25 -215 -77 -317 -102 -54 -12 -98 -26 -98 -29 0
-3 231 -109 513 -235 607 -270 1440 -648 1621 -734 71 -33 135 -61 141 -61 7
0 38 11 69 25 l57 25 1446 -677 1445 -677 -34 -15 c-18 -8 -123 -58 -233 -112
-166 -81 -302 -161 -430 -253 -18 -12 -34 -9 -155 34 -74 27 -506 180 -960
341 -454 160 -1140 403 -1525 539 l-700 248 -510 237 c-633 295 -1453 672
-1642 755 -79 35 -143 66 -143 69 1 9 237 141 375 209 146 72 335 149 473 192
56 18 102 37 102 41 0 14 -24 11 -112 -17 -214 -67 -497 -196 -745 -339 -117
-67 -135 -74 -155 -64 -19 10 -25 8 -42 -14 l-21 -25 -507 233 c-278 128 -515
235 -525 239 -15 7 -13 10 15 25 l33 17 -27 13 -27 12 34 21 c251 154 617 323
862 398 37 12 67 25 67 31 0 33 -362 -102 -619 -231 -134 -67 -343 -186 -352
-201 -4 -7 -37 5 -85 29 -236 119 -1189 524 -1886 803 -122 48 -355 174 -1350
725 -662 366 -1216 674 -1232 684 l-28 17 73 46 c96 60 368 191 538 260 121
49 136 53 160 42 14 -8 667 -273 1451 -590z m6385 246 c22 -11 229 -105 460
-210 231 -104 421 -195 423 -200 2 -6 -33 -37 -77 -70 -132 -97 -411 -282
-411 -272 0 5 -156 114 -347 241 -192 128 -358 241 -370 252 -12 11 -26 33
-32 48 -9 26 -6 31 42 72 103 87 217 158 252 158 11 0 38 -9 60 -19z m2439
-558 c509 -229 1002 -489 1076 -568 21 -23 22 -27 9 -51 -8 -15 -47 -57 -88
-95 -57 -53 -76 -65 -86 -56 -7 7 -361 149 -788 317 -427 168 -773 307 -769
311 25 22 500 175 551 178 7 1 50 -15 95 -36z m120 -479 c432 -170 782 -312
778 -316 -25 -25 -194 -115 -282 -150 -93 -38 -114 -42 -185 -42 -127 0 -369
64 -1105 294 -245 76 -479 148 -520 160 -41 12 -78 25 -83 29 -10 10 47 66
113 111 109 74 442 232 477 227 12 -2 376 -143 807 -313z m-6760 115 c446
-185 1033 -433 1426 -604 173 -75 326 -142 340 -147 21 -9 -13 -19 -215 -61
-132 -27 -258 -50 -280 -50 -46 0 -156 44 -730 298 -428 190 -1228 550 -1288
582 l-39 19 159 38 c87 21 181 44 208 51 28 7 56 14 64 14 7 1 167 -63 355
-140z m-741 -1310 c358 -160 656 -294 661 -299 5 -5 -4 -29 -22 -57 -79 -123
-175 -345 -236 -548 -15 -49 -29 -96 -32 -104 -4 -13 -7 -13 -18 0 -26 27
-1015 1299 -1011 1299 3 0 299 -131 658 -291z m4622 -449 c578 -266 1054 -486
1058 -490 10 -9 -171 -114 -241 -140 -41 -16 -52 -17 -68 -6 -38 26 -843 393
-1782 812 -333 148 -418 190 -400 195 13 4 79 23 148 42 69 20 145 45 170 56
25 11 50 18 55 16 6 -1 483 -220 1060 -485z m-2503 -159 c196 -84 620 -279
1683 -771 l600 -278 955 -337 c1003 -354 2296 -812 2318 -820 10 -4 5 -15 -18
-41 -43 -50 -66 -114 -40 -114 6 0 10 11 10 24 0 32 60 110 88 114 12 2 20 7
17 12 -21 34 394 263 749 415 77 32 134 61 128 63 -6 2 -48 -12 -94 -31 -46
-19 -87 -32 -93 -27 -5 4 -651 308 -1435 675 -784 367 -1429 669 -1433 672 -5
3 29 27 74 53 l82 48 61 -28 c34 -15 547 -251 1141 -525 594 -273 1276 -587
1515 -697 239 -110 446 -206 459 -212 23 -12 21 -15 -70 -83 -403 -301 -813
-516 -1044 -547 -41 -6 -71 -1 -170 29 -326 99 -1165 371 -2445 794 -250 82
-513 169 -585 192 -86 28 -350 142 -775 334 -355 161 -900 408 -1212 549 -645
290 -663 299 -672 321 -16 44 6 127 57 213 17 28 32 52 33 52 1 0 53 -22 116
-49z m1 -354 l32 -14 -6 -199 c-15 -466 -20 -934 -9 -934 6 0 10 61 11 178 1
291 15 932 21 937 3 3 17 1 30 -6 25 -11 25 -12 31 -182 7 -196 11 -205 73
-188 22 6 108 44 192 86 85 41 158 75 162 75 10 0 722 -319 730 -327 8 -8 -79
-83 -161 -139 -57 -40 -93 -56 -158 -73 -124 -31 -219 -96 -222 -152 -1 -10
-2 -23 -3 -28 0 -5 -22 -25 -47 -45 -26 -19 -55 -46 -65 -59 -14 -18 -78 -46
-244 -106 -124 -44 -238 -81 -255 -81 -101 -1 -236 -137 -222 -225 5 -31 4
-33 -56 -58 -34 -14 -136 -57 -227 -95 -91 -38 -208 -85 -260 -105 -52 -20
-103 -39 -113 -43 -18 -6 -17 -4 2 35 76 149 136 638 97 791 -53 206 -220 400
-474 553 -177 106 -384 172 -574 184 l-108 6 41 30 c41 30 41 30 142 24 238
-15 433 -95 827 -340 79 -50 160 -94 180 -99 19 -4 89 -8 155 -8 141 -1 235
19 342 74 l70 35 6 98 c4 54 7 141 7 194 0 96 9 219 17 219 2 0 18 -6 36 -13z
m-1559 -258 c338 -69 669 -291 811 -544 63 -111 89 -222 78 -327 l-6 -58 -86
-54 c-291 -181 -636 -338 -882 -400 -56 -14 -108 -26 -115 -26 -7 0 -24 25
-38 56 -39 85 -104 170 -203 265 -105 101 -212 175 -338 235 -123 58 -207 77
-317 71 l-88 -4 18 31 c32 58 412 428 562 547 258 204 287 223 350 229 77 7
139 2 254 -21z m3019 -402 c75 -33 134 -64 130 -68 -5 -3 -114 -45 -243 -92
-129 -47 -242 -88 -250 -91 -12 -5 -23 8 -43 49 -15 30 -27 57 -27 59 0 2 45
36 101 76 55 39 114 87 132 106 19 20 38 32 47 28 8 -3 77 -33 153 -67z m228
-103 c33 -15 58 -28 56 -30 -2 -2 -359 -129 -793 -283 -720 -254 -800 -284
-906 -345 -65 -36 -120 -66 -123 -66 -10 0 -5 52 9 78 19 35 72 85 114 106 18
9 58 22 90 27 50 10 1433 507 1472 530 20 11 15 12 81 -17z m-661 -101 l28
-61 -100 -36 c-94 -34 -102 -35 -119 -20 -10 9 -34 16 -53 17 -20 1 -36 5 -36
9 0 26 36 71 76 94 45 27 151 65 168 61 4 -2 21 -30 36 -64z m-210 -133 c12
-7 11 -10 -5 -16 -11 -4 -53 -20 -93 -35 -80 -30 -82 -21 -8 33 40 28 79 35
106 18z m429 -227 l114 -186 -24 -19 c-13 -10 -40 -31 -60 -47 l-36 -30 -157
195 c-87 108 -156 197 -154 199 3 4 188 72 198 74 3 0 56 -83 119 -186z
m-3783 156 c174 -32 402 -166 561 -330 90 -94 190 -256 169 -276 -3 -3 -40 -2
-83 2 -73 7 -79 9 -108 43 -49 59 -115 120 -160 149 -24 15 -51 41 -61 57 -10
17 -42 57 -72 88 -65 69 -124 96 -172 79 -26 -9 -38 -7 -70 9 -44 22 -122 27
-138 8 -28 -36 -20 -118 14 -152 14 -14 12 -19 -12 -52 -26 -33 -29 -34 -41
-19 -32 44 -57 150 -58 240 0 123 6 141 52 153 52 14 108 14 179 1z m1857
-201 c-15 -193 -50 -359 -95 -460 l-31 -67 -91 -31 c-166 -57 -279 -91 -456
-136 -150 -39 -198 -47 -335 -56 -87 -5 -184 -7 -214 -3 l-54 7 53 29 c30 16
62 37 72 46 52 47 81 139 68 213 -7 38 -6 41 19 46 123 26 246 63 356 106 162
64 466 216 605 302 58 36 106 66 107 66 0 0 -1 -28 -4 -62z m-1874 6 l40 -16
-57 -53 c-65 -61 -79 -59 -89 14 -9 69 25 88 106 55z m177 -30 c48 -23 118
-104 156 -182 27 -55 33 -78 33 -133 0 -53 -4 -72 -20 -89 -53 -58 -172 -83
-340 -69 -94 7 -204 25 -212 33 -7 7 20 102 48 163 49 111 132 216 208 265 51
32 79 35 127 12z m4399 10 c35 -14 57 -104 39 -169 -15 -59 -423 -298 -629
-370 -106 -37 -230 -46 -261 -19 -21 19 -22 21 -7 89 17 84 63 182 106 232 18
20 71 62 120 94 91 61 99 63 250 74 42 3 135 21 205 39 141 37 153 39 177 30z
m-4130 -266 c149 -134 153 -240 7 -225 -31 4 -71 11 -88 17 l-32 11 24 26 c39
42 49 98 32 166 -8 31 -12 57 -8 57 3 0 32 -24 65 -52z m4112 -40 c-105 -189
-469 -406 -712 -425 -67 -5 -71 -4 -98 22 -15 16 -30 39 -32 52 -3 12 -7 35
-10 49 -5 23 -4 25 17 17 126 -45 453 75 750 277 62 42 115 75 117 74 2 -2
-13 -31 -32 -66z m-3795 -112 c14 -21 8 -111 -11 -151 -26 -56 -78 -102 -145
-129 l-58 -24 -66 20 c-79 24 -245 102 -321 150 l-53 35 61 7 c34 4 79 13 99
20 26 9 44 11 55 4 34 -18 157 -36 195 -27 49 11 75 43 68 84 l-6 31 87 -4
c49 -3 91 -10 95 -16z m957 -242 c1 -26 -10 -42 -68 -97 -147 -139 -344 -283
-477 -350 -125 -63 -216 -85 -326 -79 -37 2 -38 3 -38 40 0 82 51 212 113 291
63 80 126 112 297 155 85 22 227 62 315 91 l160 51 12 -35 c6 -20 12 -50 12
-67z m-9 -104 c-20 -70 -58 -116 -188 -226 -154 -130 -251 -199 -348 -248
-126 -63 -266 -85 -310 -48 -21 17 -44 53 -44 69 0 4 39 8 88 9 74 0 100 6
177 35 155 59 350 190 545 363 46 42 85 76 86 76 2 0 -1 -13 -6 -30z"/>
<path d="M5590 3784 c-8 -3 -82 -31 -165 -62 -295 -109 -355 -141 -355 -188 0
-33 50 -56 130 -62 53 -4 79 0 135 21 96 34 426 186 448 205 24 22 21 49 -9
68 -26 17 -154 30 -184 18z"/>
<path d="M5955 3522 c-382 -183 -403 -197 -372 -245 19 -29 77 -47 148 -47 65
0 139 31 354 147 206 112 210 114 210 143 0 38 -53 60 -145 60 -70 -1 -82 -4
-195 -58z"/>
</g>
</svg>
