<?xml version="1.0" ?><svg id="Layer_1" style="enable-background:new 0 0 52 52;" version="1.1" viewBox="0 0 52 52" xml:space="preserve" xmlns="http://www.w3.org/2000/svg" xmlns:xlink="http://www.w3.org/1999/xlink"><style type="text/css">
	.st0{fill:#231F20;}
</style><g><g><path class="st0" d="M26.302824,26.9536247c0.6306763,1.9947834,0.7444248,3.5570736-1.0184803,4.9870434    c-1.3536797,1.098032-3.0786877,1.3215199-4.0484047-0.3692131c-0.4568329-0.7965012-0.5710239-1.7373066-0.5815525-2.6449432    c-0.0068188-0.587862-0.029623-2.4093742,0.4955406-2.8462601c0.4300556-0.3577652,5.1472874-0.3442631,5.1107769,0.2912045    c-0.0831108,1.4465771,2.1671619,1.4418106,2.25,0c0.0745564-1.2976456-0.8103065-2.2894497-2.0561695-2.5878811    c-1.5612774-0.3739834-3.9606609-0.3116627-5.5301971-0.0193672c-3.1591816,0.5883369-2.8286152,5.9959946-1.9955444,8.2149048    c0.9827709,2.6176395,4.0060062,3.928175,6.5359631,2.5676823c1.3254604-0.7127686,2.6730747-1.9482956,3.2643547-3.3456211    c0.6699162-1.5831547,0.2383442-3.2800312-0.2566586-4.8456879C28.037508,24.9797974,25.8645668,25.5674515,26.302824,26.9536247    L26.302824,26.9536247z"/></g><g><path class="st0" d="M32.2773247,21.4507046c4.1315193,5.0825157,4.0163422,12.4224339-0.7519093,17.2072926    c-5.5030251,5.5221901-11.6671886,3.2301674-16.668848-1.5847931c-2.550066-2.4548798-3.7058868-4.0864906-3.5691471-7.6944046    c0.1272335-3.357069,1.2077751-7.5292873,4.3240156-9.3863564c1.6562872-0.9870377,4.4847345-1.7428474,6.371253-2.1946754    c4.6447201-1.1124249,7.8939171,0.552599,11.3708992,3.3934326c1.1123085,0.9088001,2.7133522-0.6739769,1.590992-1.5909901    c-3.3712692-2.7544594-6.8863316-5.0265913-11.4117298-4.4429245c-3.0470524,0.3929958-7.8853912,1.6938686-10.353158,3.760128    c-2.8956032,2.4244862-4.0080414,6.8564663-4.142272,10.4613857c-0.1609192,4.3216896,1.04072,6.5478249,4.228157,9.2853928    c6.0193157,5.1697655,12.8637772,8.3456039,19.4194584,2.0166054c5.9837112-5.7768059,6.3233871-14.4978237,1.1832809-20.8210831    C32.9546356,18.7357216,31.3712463,20.3360634,32.2773247,21.4507046L32.2773247,21.4507046z"/></g><g><path class="st0" d="M42.2837906,22.6489258c1.9689903,6.0091782,1.79142,11.079792-1.9248352,16.3048439    c-3.3821869,4.7553482-7.1266403,8.2894325-13.0242615,9.3216553c-4.9531975,0.8669243-12.1092176,0.1162338-16.0323238-3.3206444    c-3.7300696-3.2677689-8.3020039-7.3790627-8.3013306-12.5287781c0.0008223-6.291399,0.4336817-11.4240398,5.0510502-16.1617355    c1.8534327-1.9017305,3.6269045-3.768837,5.8955374-5.1580372c2.7125406-1.6610289,5.6633272-1.8579988,8.817956-1.8860989    c5.1571159-0.0459356,11.5718002,1.1761103,14.9138222,5.5387926c2.3726578,3.09727,1.4328804,6.6125097,5.3700142,8.3992357    c1.3085709,0.5938473,2.4536819-1.3446541,1.1356201-1.9428082c-2.7943535-1.268116-3.3494644-6.7234793-5.7167969-9.0016537    c-1.8727608-1.8022318-4.2692986-3.0880146-6.7077999-3.9325275c-5.2550697-1.819963-13.0028248-2.3290367-18.126358,0.163022    c-4.5325966,2.2046318-9.9164095,7.9560556-11.7260914,12.6680422c-1.0990305,2.8616161-1.1209147,6.017437-1.1527843,9.0357246    c-0.0230377,2.1818371-0.4657028,4.930357,0.3508695,6.9989872c0.8755519,2.2180443,3.4892921,4.1384697,5.0842357,5.7784157    c1.9010029,1.9546394,3.8613815,4.6048431,6.3345308,5.8691864c4.8184881,2.4633369,11.7927027,2.5323639,16.9450607,1.3678322    c5.7753868-1.3053474,9.5028648-5.3489914,12.8318596-10.0729904c4.0989799-5.8166504,4.3379021-11.3663597,2.1516533-18.0386028    C44.0045624,20.6809177,41.8311157,21.2673931,42.2837906,22.6489258L42.2837906,22.6489258z"/></g><g><path class="st0" d="M43.3837929,3.3565495c1.4477692,0,1.4501686-2.25,0-2.25    C41.9360275,1.1065495,41.9336281,3.3565495,43.3837929,3.3565495L43.3837929,3.3565495z"/></g><g><path class="st0" d="M42.3203239,2.2415805c0.1021347,1.9684134,0.2042694,3.9368267,0.3064041,5.9052405    c0.0334473,0.6446114,0.4904938,1.0742512,1.125,1.125c2.1810875,0.1744471,4.3612328,0.2239046,6.5479507,0.14855    c1.4439011-0.049758,1.4505997-2.2999883,0-2.2500005c-2.1867561,0.075356-4.3669014,0.0258942-6.5479507-0.1485496    c0.375,0.375,0.75,0.75,1.125,1.125c-0.1021347-1.9684138-0.2042694-3.9368272-0.3064041-5.9052405    C44.4955711,0.8009281,42.2451134,0.7920688,42.3203239,2.2415805L42.3203239,2.2415805z"/></g><g><path class="st0" d="M39.2883186,5.3145695c0.0597191,1.538775,0.119442,3.0775499,0.1791649,4.6163254    c0.0328064,0.845315-0.1878319,2.220191,0.5223923,2.8787737c0.7624435,0.7070026,2.3118782,0.3807993,3.2446518,0.3806267    c1.4663734-0.0002718,2.9327469-0.0005426,4.3991241-0.0008135c1.4477539-0.000268,1.4501762-2.2502689,0-2.25    c-1.099781,0.0002031-2.1995621,0.0004063-3.2993431,0.0006094c-1.0079536,0.0001869-2.260643,0.1934948-3.2498665-0.0107317    c0.2241135,0.1723347,0.4482231,0.3446703,0.6723366,0.517005c0.0337524,0.3116465,0.0393143,0.2873573,0.0166931-0.0728683    c-0.0111961-0.2885208-0.0223961-0.5770407-0.0335922-0.8655605c-0.0223961-0.5770407-0.0447922-1.1540813-0.0671883-1.731122    c-0.0447922-1.1540813-0.0895844-2.3081627-0.1343727-3.462244C41.4823036,3.8713968,39.2320251,3.8641589,39.2883186,5.3145695    L39.2883186,5.3145695z"/></g><g><path class="st0" d="M43.201355,7.8009534c-7.2026711,6.9584508-13.7288895,14.9151459-21.4959278,21.1601772    c-1.1284847,0.9073486,0.4724102,2.4903755,1.5909901,1.5909901c7.7945557-6.2671547,14.2639732-14.1734333,21.4959259-21.1601753    C45.8356667,8.3839941,44.2435951,6.7940507,43.201355,7.8009534L43.201355,7.8009534z"/></g></g></svg>